<svg width="186" height="210" viewBox="0 0 186 210" fill="none" xmlns="http://www.w3.org/2000/svg">
<rect x="103" y="71" width="75" height="37" fill="#FAF6F6"/>
<path d="M27.7725 115.5H0.5L24 118.5L27.7725 115.5Z" fill="#FAF2A1"/>
<rect x="4" width="36" height="29" fill="#6E091B"/>
<path d="M17.56 8V10.6H12.12L10.74 8H17.56ZM14.74 11L17.56 12.54V17.34C17.56 17.98 17.4333 18.58 17.18 19.14C16.94 19.7 16.6067 20.1933 16.18 20.62C15.7667 21.0467 15.2733 21.3867 14.7 21.64C14.1267 21.88 13.5133 22 12.86 22H9.7V19.22H12.86C13.1267 19.22 13.3733 19.1733 13.6 19.08C13.8267 18.9733 14.0267 18.8333 14.2 18.66C14.3733 18.4867 14.5067 18.2867 14.6 18.06C14.6933 17.8333 14.74 17.5933 14.74 17.34V11ZM25.3402 16.72H18.7602V15.04H25.3402V16.72ZM31.2536 16.38L29.9536 13.78H34.3936V16.38H31.2536ZM26.6336 7.98H36.0936V10.34H29.4536V22H26.6336V7.98ZM46.9891 8C47.9491 8 48.8557 8.18667 49.7091 8.56C50.5624 8.92 51.3024 9.42 51.9291 10.06C52.5691 10.6867 53.0691 11.4267 53.4291 12.28C53.8024 13.1333 53.9891 14.04 53.9891 15C53.9891 15.96 53.8024 16.8667 53.4291 17.72C53.0691 18.5733 52.5691 19.32 51.9291 19.96C51.3024 20.5867 50.5624 21.0867 49.7091 21.46C48.8557 21.82 47.9491 22 46.9891 22H45.8291L44.5091 19.56H46.9891C47.5624 19.56 48.1024 19.4467 48.6091 19.22C49.1291 18.9933 49.5757 18.68 49.9491 18.28C50.3357 17.8667 50.6357 17.38 50.8491 16.82C51.0757 16.26 51.1891 15.6533 51.1891 15C51.1891 14.36 51.0757 13.76 50.8491 13.2C50.6357 12.64 50.3357 12.16 49.9491 11.76C49.5757 11.3467 49.1291 11.0267 48.6091 10.8C48.1024 10.56 47.5624 10.44 46.9891 10.44H43.7891V22H40.9891V8H46.9891ZM57.9283 16.22C57.9283 16.7 58.0083 17.1533 58.1683 17.58C58.3416 17.9933 58.5749 18.36 58.8683 18.68C59.1616 18.9867 59.5016 19.2333 59.8883 19.42C60.2883 19.6067 60.7083 19.7 61.1483 19.7V22.16C60.3083 22.16 59.5216 22.0067 58.7883 21.7C58.0549 21.38 57.4083 20.9467 56.8483 20.4C56.3016 19.8533 55.8683 19.2133 55.5483 18.48C55.2416 17.7467 55.0883 16.96 55.0883 16.12V8H57.9283V16.12V16.16V16.22ZM67.1683 8V16.12C67.1683 16.8267 67.0483 17.5 66.8083 18.14C66.5816 18.7667 66.2616 19.34 65.8483 19.86C65.4483 20.3667 64.9683 20.8067 64.4083 21.18C63.8483 21.54 63.2416 21.8067 62.5883 21.98L61.3483 19.68C61.7616 19.6533 62.1483 19.5467 62.5083 19.36C62.8683 19.16 63.1816 18.9067 63.4483 18.6C63.7283 18.28 63.9416 17.92 64.0883 17.52C64.2483 17.1067 64.3283 16.6733 64.3283 16.22C64.3283 16.2067 64.3216 16.2 64.3083 16.2C64.3083 16.1867 64.3083 16.1733 64.3083 16.16C64.3083 16.12 64.3083 16.1133 64.3083 16.14C64.3216 16.1667 64.3283 16.1467 64.3283 16.08C64.3283 16 64.3283 15.84 64.3283 15.6C64.3283 15.3467 64.3283 14.9267 64.3283 14.34C64.3283 13.74 64.3283 12.9333 64.3283 11.92C64.3283 10.9067 64.3283 9.6 64.3283 8H67.1683ZM70.9895 8L75.0295 17.8L72.8095 19.74L67.9695 8H70.9895ZM79.4695 8H82.4895L76.7495 22H73.7495L79.4695 8ZM90.707 22L89.667 19.52H83.267L82.207 22H79.207L84.947 8H87.967L84.267 17.02H88.647L86.667 12.22L88.927 10.28L93.707 22H90.707ZM94.4266 22V8H97.2266V22H94.4266ZM97.6466 19.2H103.807V22H99.2066L97.6466 19.2Z" fill="white"/>
<rect y="115" width="186" height="1" fill="#2A2E45"/>
<rect x="5" y="136.54" width="198.353" height="0.819757" transform="rotate(-43.5011 5 136.54)" fill="#2A2E45"/>
<path d="M17.2997 101.139C17.7433 100.718 18.2435 100.408 18.8003 100.21C19.3488 100.003 19.9114 99.9071 20.4882 99.9218C21.0568 99.9278 21.6097 100.048 22.147 100.282C22.6929 100.508 23.1767 100.843 23.5983 101.287C24.0199 101.731 24.3297 102.231 24.5278 102.787C24.7345 103.336 24.8264 103.894 24.8034 104.462C24.7805 105.031 24.656 105.588 24.4299 106.134C24.1955 106.671 23.8565 107.15 23.4129 107.572L22.3952 108.539L19.6675 107.655L21.6769 105.745C21.8683 105.563 22.0135 105.359 22.1126 105.132C22.2122 104.889 22.2609 104.644 22.2587 104.398C22.2482 104.143 22.1909 103.891 22.0869 103.642C21.9833 103.376 21.8241 103.13 21.6091 102.904C21.4273 102.713 21.2145 102.567 20.9709 102.468C20.7277 102.351 20.4791 102.281 20.2251 102.258C19.971 102.234 19.7157 102.262 19.4591 102.34C19.2111 102.41 18.9915 102.536 18.8001 102.718L16.4907 104.913L23.6702 112.467L21.8566 114.191L13.1766 105.058L17.2997 101.139ZM29.2918 94.5103C29.7616 94.0639 30.2876 93.7377 30.8701 93.5319C31.4442 93.3173 32.0282 93.2176 32.622 93.2327C33.2157 93.2478 33.7939 93.3771 34.3564 93.6206C34.9276 93.8558 35.4322 94.204 35.8704 94.665C36.3085 95.126 36.6305 95.6477 36.8364 96.2302C37.0509 96.8043 37.1506 97.3883 37.1355 97.9821C37.1204 98.5758 36.9952 99.1583 36.76 99.7295C36.5165 100.292 36.1599 100.796 35.6902 101.243C35.2205 101.689 34.6986 102.02 34.1244 102.234C33.542 102.44 32.9539 102.536 32.3601 102.52C31.7663 102.505 31.1838 102.38 30.6126 102.145C30.0501 101.901 29.5498 101.549 29.1117 101.088C28.6735 100.627 28.3472 100.11 28.1326 99.5354C27.9268 98.953 27.8314 98.3649 27.8465 97.7711C27.8616 97.1773 27.9909 96.5992 28.2344 96.0367C28.4697 95.4655 28.8221 94.9567 29.2918 94.5103ZM34.2146 99.6902C34.4321 99.4835 34.5867 99.2456 34.6784 98.9763C34.7788 98.6987 34.8201 98.4112 34.8022 98.1136C34.7848 97.7991 34.7118 97.496 34.5835 97.2041C34.4555 96.8953 34.2675 96.6104 34.0195 96.3494C33.7881 96.1059 33.5255 95.9167 33.2319 95.7819C32.9387 95.6301 32.6437 95.5462 32.347 95.5302C32.0508 95.4972 31.7615 95.5238 31.4792 95.61C31.2056 95.6879 30.9601 95.8302 30.7426 96.0368C30.5252 96.2435 30.3662 96.4856 30.2658 96.7632C30.1654 97.0407 30.1197 97.3324 30.1289 97.6382C30.1386 97.927 30.2073 98.2259 30.3353 98.5347C30.4637 98.8266 30.6436 99.0943 30.8751 99.3378C31.1231 99.5988 31.3937 99.8051 31.6869 99.9569C31.9805 100.092 32.2796 100.18 32.5841 100.222C32.8891 100.246 33.1827 100.216 33.465 100.129C33.7473 100.043 33.9972 99.8969 34.2146 99.6902ZM41.7292 83.3856L41.8207 83.7954L42.2836 85.6151L42.2582 85.6145C41.8141 85.722 41.4267 85.9328 41.0962 86.2469C40.87 86.4619 40.6941 86.7036 40.5685 86.972C40.4345 87.2317 40.3554 87.5055 40.3311 87.7935C40.2985 88.0728 40.3125 88.3575 40.373 88.6476C40.4422 88.9295 40.5586 89.1913 40.7223 89.4332L44.1322 93.0213L42.3578 94.7077L36.1578 88.1838L37.9323 86.4974L38.7383 87.3455C38.5958 86.2724 38.9682 85.3143 39.8555 84.4711C40.3774 83.9751 40.9976 83.6174 41.7162 83.398L41.7292 83.3856ZM49.9317 76.385L51.3081 77.8333L50.3426 78.7509L48.1572 78.0714L49.9317 76.385ZM51.3702 81.8964C51.5603 82.0964 51.7911 82.1999 52.0625 82.2068C52.3427 82.2055 52.5828 82.1097 52.7829 81.9196L54.0485 80.7168L55.4869 82.2303L54.2212 83.4331C53.882 83.7555 53.5023 84.0005 53.0821 84.1681C52.6624 84.3186 52.2361 84.3927 51.8033 84.3901C51.3709 84.3707 50.9489 84.275 50.5374 84.1033C50.1258 83.9315 49.7588 83.676 49.4364 83.3368L47.5765 81.3797L46.637 82.2724L45.2606 80.8242L46.2001 79.9314L43.9557 77.5697L45.691 75.9205L51.3702 81.8964ZM56.5045 70.9828L58.4225 69.16L59.7989 70.6083L58.6898 71.6623L58.6768 71.6747L56.5045 70.9828ZM54.8761 65.4284L56.3269 66.955L54.9047 68.3066C54.6785 68.5215 54.5872 68.7738 54.6308 69.0635C54.6743 69.3532 54.8408 69.6503 55.1301 69.9547L61.4293 76.5829L59.6939 78.2321L55.9367 74.2787L54.9973 75.1715L53.6209 73.7232L54.5604 72.8304L53.3204 71.5256C53.0062 71.1951 52.7695 70.8241 52.6102 70.4126C52.4596 69.9929 52.3897 69.5709 52.4005 69.1468C52.4118 68.7057 52.5074 68.2837 52.6874 67.8809C52.8592 67.4693 53.1146 67.1024 53.4539 66.78L54.8761 65.4284ZM63.9008 61.6194C64.3705 61.1731 64.8966 60.8469 65.479 60.6411C66.0532 60.4265 66.6371 60.3268 67.2309 60.3419C67.8247 60.357 68.4028 60.4863 68.9653 60.7298C69.5365 60.965 70.0412 61.3131 70.4793 61.7742C70.9174 62.2352 71.2394 62.7569 71.4453 63.3393C71.6599 63.9135 71.7596 64.4975 71.7445 65.0912C71.7294 65.685 71.6042 66.2675 71.369 66.8387C71.1255 67.4012 70.7689 67.9056 70.2991 68.352C69.8294 68.7984 69.3075 69.1289 68.7333 69.3435C68.1509 69.5494 67.5628 69.6447 66.969 69.6296C66.3753 69.6145 65.7928 69.4893 65.2216 69.2541C64.6591 69.0106 64.1588 68.6583 63.7206 68.1973C63.2825 67.7363 62.9561 67.2187 62.7416 66.6446C62.5357 66.0621 62.4403 65.474 62.4555 64.8803C62.4706 64.2865 62.5999 63.7083 62.8434 63.1458C63.0786 62.5746 63.4311 62.0658 63.9008 61.6194ZM68.8236 66.7994C69.041 66.5927 69.1956 66.3547 69.2874 66.0855C69.3878 65.8079 69.4291 65.5204 69.4112 65.2228C69.3937 64.9083 69.3208 64.6051 69.1924 64.3133C69.0645 64.0045 68.8765 63.7196 68.6285 63.4586C68.397 63.2151 68.1345 63.0259 67.8408 62.8911C67.5476 62.7393 67.2526 62.6554 66.956 62.6394C66.6597 62.6064 66.3705 62.633 66.0882 62.7192C65.8146 62.7971 65.569 62.9394 65.3516 63.146C65.1341 63.3527 64.9752 63.5948 64.8747 63.8723C64.7743 64.1499 64.7287 64.4416 64.7379 64.7474C64.7475 65.0362 64.8163 65.335 64.9442 65.6439C65.0726 65.9357 65.2525 66.2034 65.484 66.447C65.732 66.708 66.0026 66.9143 66.2958 67.0661C66.5895 67.2009 66.8886 67.2891 67.1931 67.3308C67.498 67.3556 67.7916 67.3248 68.0739 67.2386C68.3562 67.1525 68.6061 67.006 68.8236 66.7994ZM68.2998 52.6711L70.0221 51.0343L78.702 60.1677L76.9667 61.8168L68.2998 52.6711ZM82.2296 56.8152L76.0296 50.2914L77.765 48.6422L83.9649 55.166L82.2296 56.8152ZM73.5496 47.6819L75.285 46.0327L76.7358 47.5592L75.0004 49.2084L73.5496 47.6819ZM84.4422 42.0978C84.9119 41.6514 85.438 41.3253 86.0204 41.1194C86.5946 40.9048 87.1785 40.8051 87.7723 40.8202C88.3661 40.8353 88.9442 40.9646 89.5067 41.2081C90.0779 41.4434 90.5826 41.7915 91.0207 42.2525C91.4589 42.7135 91.7809 43.2352 91.9867 43.8177C92.2013 44.3918 92.301 44.9758 92.2859 45.5696C92.2708 46.1634 92.1456 46.7458 91.9104 47.317C91.6669 47.8795 91.3103 48.384 90.8406 48.8304C90.3708 49.2768 89.8489 49.6073 89.2747 49.8218C88.6923 50.0277 88.1042 50.1231 87.5104 50.108C86.9167 50.0928 86.3342 49.9677 85.763 49.7324C85.2005 49.4889 84.7002 49.1367 84.262 48.6757C83.8239 48.2147 83.4976 47.6971 83.283 47.1229C83.0771 46.5405 82.9818 45.9524 82.9969 45.3586C83.012 44.7648 83.1413 44.1867 83.3848 43.6242C83.62 43.053 83.9725 42.5442 84.4422 42.0978ZM89.365 47.2777C89.5824 47.0711 89.737 46.8331 89.8288 46.5638C89.9292 46.2862 89.9705 45.9987 89.9526 45.7012C89.9351 45.3867 89.8622 45.0835 89.7338 44.7916C89.6059 44.4828 89.4179 44.1979 89.1699 43.937C88.9384 43.6934 88.6759 43.5042 88.3822 43.3694C88.089 43.2177 87.7941 43.1338 87.4974 43.1177C87.2011 43.0847 86.9119 43.1113 86.6296 43.1975C86.356 43.2754 86.1104 43.4177 85.893 43.6244C85.6755 43.831 85.5166 44.0731 85.4161 44.3507C85.3157 44.6282 85.2701 44.9199 85.2793 45.2257C85.2889 45.5146 85.3577 45.8134 85.4856 46.1222C85.614 46.4141 85.7939 46.6818 86.0254 46.9253C86.2734 47.1863 86.544 47.3926 86.8372 47.5444C87.1309 47.6792 87.43 47.7675 87.7345 47.8092C88.0394 47.8339 88.333 47.8032 88.6153 47.717C88.8976 47.6308 89.1475 47.4844 89.365 47.2777Z" fill="white"/>
<rect x="2" y="108.842" width="107.273" height="0.914419" transform="rotate(-43.4999 2 108.842)" fill="#FAF2A1"/>
<rect x="77" y="73.6719" width="107.273" height="0.914419" transform="rotate(-43.3747 77 73.6719)" fill="#FAF2A1"/>
<rect y="30" width="186" height="1" fill="#FAF2A1"/>
</svg>
